<?xml version="1.0" encoding="UTF-8" standalone="no" ?>
<!DOCTYPE svg PUBLIC "-//W3C//DTD SVG 1.1//EN" "http://www.w3.org/Graphics/SVG/1.1/DTD/svg11.dtd">
<svg xmlns="http://www.w3.org/2000/svg" xmlns:xlink="http://www.w3.org/1999/xlink" version="1.1" width="1920" height="450" viewBox="0 0 1920 450" xml:space="preserve">
<desc>Created with Fabric.js 5.2.4</desc>
<defs>
</defs>
<rect x="0" y="0" width="100%" height="100%" fill="transparent"></rect>
<g transform="matrix(Infinity NaN NaN Infinity 0 0)" id="54c6e021-6e47-46d9-8e36-95649b21b595"  >
</g>
<g transform="matrix(1 0 0 1 960 225)" id="7d90c2c8-02a5-4a31-a072-3bef75c7e4b0"  >
<rect style="stroke: none; stroke-width: 1; stroke-dasharray: none; stroke-linecap: butt; stroke-dashoffset: 0; stroke-linejoin: miter; stroke-miterlimit: 4; fill: rgb(255,255,255); fill-rule: nonzero; opacity: 1; visibility: hidden;" vector-effect="non-scaling-stroke"  x="-960" y="-225" rx="0" ry="0" width="1920" height="450" />
</g>
<g transform="matrix(7.37 0 0 7.37 162.27 229.22)"  >
<path style="stroke: none; stroke-width: 1; stroke-dasharray: none; stroke-linecap: butt; stroke-dashoffset: 0; stroke-linejoin: miter; stroke-miterlimit: 4; fill: rgb(37,99,235); fill-rule: evenodd; opacity: 1;" vector-effect="non-scaling-stroke"  transform=" translate(-20.68, -20.14)" d="M 20.6841 40.138 C 31.7298 40.138 40.6841 31.1837 40.6841 20.138 C 40.6841 9.09234 31.7298 0.138031 20.6841 0.138031 C 9.63837 0.138031 0.684082 9.09234 0.684082 20.138 C 0.684082 31.1837 9.63837 40.138 20.6841 40.138 Z M 26.9234 9.45487 C 27.2271 8.37608 26.1802 7.73816 25.2241 8.41933 L 11.8772 17.9276 C 10.8403 18.6663 11.0034 20.138 12.1222 20.138 L 15.6368 20.138 L 15.6368 20.1108 L 22.4866 20.1108 L 16.9053 22.0801 L 14.4448 30.8212 C 14.1411 31.9 15.1879 32.5379 16.1441 31.8567 L 29.491 22.3485 C 30.5279 21.6098 30.3647 20.138 29.246 20.138 L 23.9162 20.138 L 26.9234 9.45487 Z" stroke-linecap="round" />
</g>
<g transform="matrix(2.23 0 0 2.23 1091.04 229.22)" style="" id="3616dd97-32d6-464c-8ebd-4c3085dfdf29"  >
		<text xml:space="preserve" font-family="Raleway" font-size="105" font-style="normal" font-weight="900" style="stroke: none; stroke-width: 1; stroke-dasharray: none; stroke-linecap: butt; stroke-dashoffset: 0; stroke-linejoin: miter; stroke-miterlimit: 4; fill: rgb(0,0,0); fill-rule: nonzero; opacity: 1; white-space: pre;" ><tspan x="-350.7" y="32.98" >SprintMeister</tspan></text>
</g>
</svg>